<svg width="500" height="500" viewBox="0 0 500 500" fill="none" xmlns="http://www.w3.org/2000/svg">
<path d="M126.02 316.808C124.971 315.084 123.923 313.326 122.943 311.568C119.291 305.111 113.408 301.122 106.071 300.142C98.7339 299.161 92.0055 301.427 86.7648 306.666L71.2454 322.149C60.6624 332.73 43.5201 332.73 32.9372 322.149C22.3543 311.568 22.3543 294.429 32.9372 283.848L85.9871 230.806C93.9327 222.862 98.2944 213.532 99.2411 202.342C102.927 159.645 121.117 117.963 153.812 85.2727C190.667 48.4245 238.949 30 287.266 30C335.582 30 383.864 48.4245 420.719 85.2727C457.573 122.121 476 170.395 476 218.704C476 267.012 457.573 315.287 420.719 352.135C388.023 384.825 346.334 402.979 303.63 406.697C292.439 407.678 283.107 412.005 275.161 419.949L232.288 462.815C221.705 473.396 204.563 473.396 193.98 462.815C183.397 452.234 183.397 435.094 193.98 424.513L199.289 419.172C204.529 413.932 206.795 407.204 205.814 399.869C204.834 392.533 200.81 386.651 194.386 383C192.628 381.985 190.87 380.971 189.145 379.923C179.982 374.345 168.554 375.731 160.98 383.27L99.5116 444.729C88.9287 455.31 71.7863 455.31 61.2034 444.729C50.6205 434.148 50.6205 417.008 61.2034 406.427L122.672 344.968C130.246 337.396 131.598 325.969 126.02 316.808V316.808ZM152.731 218.704C152.731 253.118 165.883 287.532 192.154 313.799C218.426 340.066 252.846 353.217 287.266 353.217C321.685 353.217 356.139 340.066 382.41 313.799C408.682 287.532 421.834 253.118 421.834 218.67C421.834 184.222 408.682 149.808 382.41 123.541C356.139 97.2736 321.685 84.1568 287.266 84.1568C252.846 84.1568 218.392 97.2736 192.154 123.541C165.883 149.808 152.731 184.256 152.731 218.67V218.704Z" fill="#4BC7F8"/>
<path d="M287.266 181.45C278.982 181.45 271.442 178.069 266.032 172.66C260.622 167.251 257.275 159.747 257.275 151.43C257.275 143.148 260.656 135.643 266.066 130.2C271.51 124.757 279.016 121.377 287.299 121.377C300.452 121.377 312.996 124.014 324.492 128.747C336.393 133.682 347.111 140.917 356.071 149.842C365.031 158.834 372.233 169.516 377.17 181.416C381.937 192.91 384.574 205.486 384.574 218.636V219.211C383.83 227.798 380.821 235.573 375.445 241.117C370.374 246.391 363.375 249.535 354.448 249.501C347.416 249.501 341.194 247.202 336.258 243.348C331.119 239.359 327.433 233.714 325.709 227.189C324.83 223.808 324.627 220.631 324.424 217.385C324.289 215.087 324.12 212.754 323.68 210.624C322.903 207.108 321.652 203.761 319.995 200.753C318.338 197.676 316.174 194.837 313.638 192.301C310.19 188.853 306.098 186.081 301.568 184.222C297.172 182.43 292.371 181.416 287.299 181.416L287.266 181.45Z" fill="#122036"/>
</svg>
