<svg width="40" height="40" fill="none" xmlns="http://www.w3.org/2000/svg"><g clip-path="url(#a)"><path d="M.174 19.326a19.73 19.73 0 0 0 1.603 8.517 2.355 2.355 0 0 0 3.63.913l6.378-5.082c1.478-1.177 1.034-3.529-.772-4.087L3.22 17.178c-1.474-.455-2.991.607-3.046 2.148Z" fill="url(#b)"/><path d="M6.447 5.52a19.735 19.735 0 0 0-4.883 7.16c-.567 1.434.397 3.015 1.93 3.188l8.106.916c1.878.213 3.227-1.764 2.345-3.435l-3.807-7.212a2.355 2.355 0 0 0-3.69-.617Z" fill="url(#c)"/><path d="M39.848 20.686a19.73 19.73 0 0 0-1.603-8.517 2.355 2.355 0 0 0-3.63-.913l-6.378 5.082c-1.479 1.177-1.035 3.528.771 4.087l7.794 2.409c1.474.455 2.991-.606 3.046-2.148Z" fill="url(#d)"/><path d="M34.5 6.446a19.74 19.74 0 0 0-7.162-4.882c-1.434-.568-3.015.397-3.189 1.93l-.916 8.103c-.213 1.878 1.765 3.227 3.436 2.345l7.213-3.806a2.354 2.354 0 0 0 .618-3.69Z" fill="url(#e)"/><path d="M33.575 34.492a19.735 19.735 0 0 0 4.882-7.16c.568-1.434-.397-3.015-1.93-3.188l-8.105-.916c-1.878-.213-3.228 1.764-2.345 3.435l3.806 7.211a2.355 2.355 0 0 0 3.692.618Z" fill="url(#f)"/><path d="M19.345 39.85a19.749 19.749 0 0 0 8.515-1.625 2.354 2.354 0 0 0 .904-3.632l-5.1-6.363c-1.182-1.476-3.532-1.026-4.086.782L17.19 36.81c-.451 1.474.614 2.989 2.156 3.04Z" fill="url(#g)"/><path d="m20.43 11.01 2.41-7.791c.455-1.474-.607-2.991-2.148-3.046a19.743 19.743 0 0 0-8.52 1.603 2.354 2.354 0 0 0-.913 3.628l5.083 6.377c1.178 1.48 3.53 1.035 4.088-.77Z" fill="url(#h)"/><path d="M5.522 33.566a19.74 19.74 0 0 0 7.162 4.882c1.434.567 3.015-.397 3.188-1.93l.917-8.103c.212-1.878-1.765-3.227-3.436-2.345L6.14 29.876a2.354 2.354 0 0 0-.618 3.69Z" fill="url(#i)"/></g><defs><linearGradient id="b" x1="39.412" y1="15.118" x2="1.765" y2="27.706" gradientUnits="userSpaceOnUse"><stop stop-color="#DB00FF"/><stop offset="1" stop-color="#2E43F5"/></linearGradient><linearGradient id="c" x1="39.412" y1="15.118" x2="1.765" y2="27.706" gradientUnits="userSpaceOnUse"><stop stop-color="#DB00FF"/><stop offset="1" stop-color="#2E43F5"/></linearGradient><linearGradient id="d" x1="39.412" y1="15.118" x2="1.765" y2="27.706" gradientUnits="userSpaceOnUse"><stop stop-color="#DB00FF"/><stop offset="1" stop-color="#2E43F5"/></linearGradient><linearGradient id="e" x1="39.412" y1="15.118" x2="1.765" y2="27.706" gradientUnits="userSpaceOnUse"><stop stop-color="#DB00FF"/><stop offset="1" stop-color="#2E43F5"/></linearGradient><linearGradient id="f" x1="39.412" y1="15.118" x2="1.765" y2="27.706" gradientUnits="userSpaceOnUse"><stop stop-color="#DB00FF"/><stop offset="1" stop-color="#2E43F5"/></linearGradient><linearGradient id="g" x1="39.412" y1="15.118" x2="1.765" y2="27.706" gradientUnits="userSpaceOnUse"><stop stop-color="#DB00FF"/><stop offset="1" stop-color="#2E43F5"/></linearGradient><linearGradient id="h" x1="39.412" y1="15.118" x2="1.765" y2="27.706" gradientUnits="userSpaceOnUse"><stop stop-color="#DB00FF"/><stop offset="1" stop-color="#2E43F5"/></linearGradient><linearGradient id="i" x1="39.412" y1="15.118" x2="1.765" y2="27.706" gradientUnits="userSpaceOnUse"><stop stop-color="#DB00FF"/><stop offset="1" stop-color="#2E43F5"/></linearGradient><clipPath id="a"><path fill="#fff" d="M0 0h40v40H0z"/></clipPath></defs></svg>
