<svg width="500" height="420" viewBox="0 0 500 420" fill="none" xmlns="http://www.w3.org/2000/svg">
<path d="M187.079 164.866C186.555 164.011 186.031 163.129 185.535 162.247C183.715 159.021 180.765 157.009 177.07 156.512C173.403 156.016 170.012 157.146 167.393 159.765L159.618 167.541C154.324 172.834 145.722 172.834 140.401 167.541C135.107 162.247 135.107 153.617 140.401 148.323L167.007 121.717C171.005 117.72 173.183 113.06 173.652 107.435C175.499 86.0127 184.625 65.1136 201.03 48.7088C219.502 30.2361 243.737 21 267.945 21C292.152 21 316.387 30.2361 334.86 48.7088C353.333 67.1815 362.569 91.4165 362.569 115.624C362.569 139.831 353.333 164.067 334.86 182.539C318.483 198.944 297.556 208.043 276.133 209.918C270.509 210.414 265.822 212.592 261.852 216.562L240.346 238.068C235.053 243.361 226.45 243.361 221.129 238.068C215.836 232.774 215.836 224.172 221.129 218.851L223.803 216.176C226.423 213.557 227.581 210.166 227.057 206.499C226.561 202.832 224.548 199.854 221.322 198.034C220.44 197.538 219.558 197.014 218.703 196.49C214.126 193.706 208.391 194.367 204.586 198.172L173.762 228.997C168.468 234.29 159.838 234.29 154.545 228.997C149.251 223.703 149.251 215.073 154.545 209.78L185.369 178.955C189.174 175.15 189.863 169.415 187.051 164.838L187.079 164.866ZM200.478 115.652C200.478 132.911 207.068 150.171 220.247 163.35C233.426 176.529 250.685 183.118 267.945 183.118C285.204 183.118 302.492 176.529 315.643 163.35C328.822 150.171 335.411 132.911 335.411 115.652C335.411 98.3921 328.822 81.1052 315.643 67.9537C302.464 54.7747 285.204 48.1851 267.945 48.1851C250.685 48.1851 233.398 54.7747 220.247 67.9537C207.068 81.1327 200.478 98.3921 200.478 115.679V115.652Z" fill="#4BC7F8"/>
<path d="M267.945 96.9859C263.782 96.9859 260.005 95.3041 257.303 92.5746C254.601 89.845 252.891 86.0954 252.919 81.9322C252.919 77.7689 254.601 74.0193 257.33 71.2897C260.06 68.5602 263.809 66.8508 267.973 66.8508C274.562 66.8508 280.876 68.1742 286.638 70.5453C292.621 73.0267 297.97 76.6384 302.464 81.1325C306.958 85.6266 310.57 91.0029 313.051 96.9583C315.45 102.721 316.774 109.035 316.774 115.624V115.927C316.388 120.228 314.899 124.116 312.197 126.928C309.66 129.575 306.159 131.147 301.664 131.147C298.135 131.147 295.02 129.989 292.538 128.059C289.974 126.046 288.127 123.234 287.245 119.953C286.804 118.271 286.693 116.672 286.583 115.045C286.5 113.887 286.445 112.729 286.197 111.654C285.811 109.889 285.177 108.207 284.35 106.691C283.523 105.147 282.42 103.741 281.151 102.445C279.415 100.708 277.374 99.3295 275.113 98.3921C272.908 97.4822 270.509 96.9859 267.973 96.9859H267.945Z" fill="#122036"/>
<path d="M44.1502 392.852H89.2565C94.6053 392.852 97.6105 389.847 97.6105 384.498V378.157C97.6105 372.808 94.6053 369.803 89.2565 369.803H50.4087C42.8818 369.803 41.6135 366.439 41.6135 362.165V283.201C41.6135 277.853 38.6084 274.847 33.2596 274.847H24.3541C19.0053 274.847 16 277.853 16 283.201V366.797C16 385.683 24.6298 392.852 44.1502 392.852ZM175.306 311.903V352.791C175.306 368.81 169.488 373.249 155.868 373.249C142.248 373.249 136.431 368.81 136.431 352.791V311.903C136.431 306.527 133.426 303.521 128.077 303.521H119.557C114.208 303.521 111.203 306.527 111.203 311.903V352.405C111.203 385.022 127.635 394.479 155.868 394.479C184.101 394.479 200.534 385.049 200.534 352.405V311.903C200.534 306.527 197.528 303.521 192.18 303.521H183.66C178.311 303.521 175.306 306.527 175.306 311.903V311.903ZM264.085 301.895C235.852 301.895 219.42 311.324 219.42 343.941V384.443C219.42 389.791 222.425 392.824 227.774 392.824H236.293C241.642 392.824 244.647 389.791 244.647 384.443V343.527C244.647 327.563 250.465 323.097 264.085 323.097C277.705 323.097 283.523 327.536 283.523 343.527V384.443C283.523 389.791 286.528 392.824 291.877 392.824H300.396C305.745 392.824 308.75 389.791 308.75 384.443V343.941C308.75 311.324 292.318 301.895 264.085 301.895V301.895ZM366.595 301.895C358.627 301.895 349.004 302.97 339.106 305.066C333.178 306.251 330.366 309.504 330.366 314.495V317.858C330.366 323.676 333.813 326.295 339.575 325.22C348.012 323.483 356.449 322.408 362.955 322.408C376.217 322.408 384.075 326.764 384.075 336.772V338.233H360.584C338.555 338.233 324.907 344.134 324.907 365.556C324.907 386.979 338.472 392.824 360.584 392.824H381.18C400.673 392.824 409.302 385.656 409.302 366.742V336.8C409.302 312.344 391.161 301.922 366.567 301.922L366.595 301.895ZM375.031 374.738H361.77C350.907 374.738 348.646 372.201 348.646 365.556C348.646 358.912 350.907 356.32 361.88 356.32H384.102V365.446C384.102 371.539 382.834 374.71 375.059 374.71L375.031 374.738ZM474.095 302.639C435.66 303.273 428.216 308.898 428.216 329.686V384.498C428.216 389.847 431.221 392.88 436.57 392.88H445.586C450.935 392.88 453.94 389.847 453.94 384.498V333.326C453.94 326.516 454.767 324.889 473.819 324.613C479.802 324.531 483 321.525 483 316.176V310.911C483 305.452 479.912 302.557 474.095 302.639Z" fill="#122036"/>
</svg>
