<svg width="500" height="500" viewBox="0 0 500 500" fill="none" xmlns="http://www.w3.org/2000/svg">
<path d="M126.02 316.855C124.971 315.131 123.923 313.372 122.943 311.614C119.291 305.156 113.408 301.167 106.071 300.186C98.7339 299.205 92.0054 301.471 86.7647 306.712L71.2452 322.197C60.6623 332.78 43.5201 332.78 32.9372 322.197C22.3543 311.614 22.3543 294.472 32.9372 283.889L85.9871 230.839C93.9327 222.893 98.2943 213.562 99.241 202.37C102.926 159.667 121.117 117.977 153.812 85.2818C190.667 48.4275 238.949 30 287.265 30C335.582 30 383.864 48.4275 420.719 85.2818C457.573 122.136 476 170.418 476 218.735C476 267.051 457.573 315.333 420.719 352.188C388.023 384.883 346.334 403.04 303.63 406.759C292.439 407.74 283.107 412.068 275.161 420.013L232.288 462.886C221.705 473.469 204.563 473.469 193.98 462.886C183.397 452.303 183.397 435.161 193.98 424.578L199.288 419.235C204.529 413.995 206.795 407.266 205.814 399.929C204.834 392.592 200.81 386.709 194.386 383.057C192.628 382.043 190.869 381.029 189.145 379.981C179.982 374.402 168.554 375.788 160.98 383.328L99.5116 444.797C88.9287 455.38 71.7863 455.38 61.2034 444.797C50.6204 434.214 50.6204 417.072 61.2034 406.489L122.672 345.02C130.246 337.446 131.598 326.018 126.02 316.855V316.855ZM152.73 218.735C152.73 253.155 165.883 287.575 192.154 313.846C218.426 340.117 252.846 353.27 287.265 353.27C321.685 353.27 356.139 340.117 382.41 313.846C408.682 287.575 421.834 253.155 421.834 218.701C421.834 184.247 408.682 149.827 382.41 123.556C356.139 97.2846 321.685 84.1657 287.265 84.1657C252.846 84.1657 218.392 97.2846 192.154 123.556C165.883 149.827 152.73 184.281 152.73 218.701V218.735Z" fill="#4BC7F8"/>
<path d="M287.266 181.475C278.982 181.475 271.442 178.094 266.032 172.684C260.622 167.274 257.275 159.768 257.275 151.45C257.275 143.166 260.656 135.66 266.066 130.217C271.509 124.773 279.016 121.392 287.299 121.392C300.452 121.392 312.996 124.029 324.492 128.763C336.393 133.699 347.111 140.935 356.071 149.861C365.031 158.855 372.233 169.539 377.17 181.441C381.937 192.937 384.575 205.514 384.575 218.667V219.242C383.831 227.83 380.821 235.607 375.445 241.152C370.374 246.426 363.375 249.571 354.449 249.537C347.416 249.537 341.195 247.238 336.258 243.383C331.119 239.394 327.433 233.747 325.709 227.221C324.83 223.84 324.627 220.662 324.424 217.416C324.289 215.117 324.12 212.784 323.68 210.654C322.903 207.137 321.652 203.79 319.995 200.781C318.338 197.704 316.174 194.864 313.638 192.328C310.19 188.879 306.098 186.107 301.568 184.247C297.172 182.455 292.371 181.441 287.299 181.441L287.266 181.475Z" fill="white"/>
</svg>
